<svg xmlns="http://www.w3.org/2000/svg" width="47.205" height="36.476" viewBox="0 0 47.205 36.476">
  <path id="e911_emergency_FILL0_wght400_GRAD0_opsz24" d="M48.583-803.524v-4.291h3.433l4.238-14.108a4.184,4.184,0,0,1,1.582-2.226,4.259,4.259,0,0,1,2.548-.831h6.437a4.259,4.259,0,0,1,2.548.831,4.184,4.184,0,0,1,1.582,2.226l4.238,14.108h3.433v4.291Zm7.939-4.291H70.683l-3.862-12.874H60.384Zm4.935-21.457V-840h4.291v10.728Zm12.767,5.31-3.058-3.058,7.617-7.563,3,3Zm2.253,9.709v-4.291H87.2v4.291Zm-23.5-9.709-7.563-7.617,3-3,7.617,7.563ZM40-814.252v-4.291H50.728v4.291ZM63.6-807.815Z" transform="translate(-40 840)" fill="#7851ea"/>
</svg>
